<?xml version="1.0" encoding="iso-8859-1"?>
<!-- Generator: Adobe Illustrator 19.0.0, SVG Export Plug-In . SVG Version: 6.00 Build 0)  -->
<svg version="1.1" id="Layer_1" xmlns="http://www.w3.org/2000/svg" xmlns:xlink="http://www.w3.org/1999/xlink" x="0px" y="0px"
	 viewBox="0 0 512 512" style="enable-background:new 0 0 512 512;" xml:space="preserve">
<g>
	<g>
		<path d="M440.219,343.683l-16.86-126.001h-9.926V200.44c1.482-0.298,2.936-0.686,4.367-1.143l0.324,0.322l4.365-2.155
			c4.487-2.082,8.607-4.982,12.17-8.643c7.044-7.24,11.079-16.575,11.568-26.562c0.008-0.151,0.015-0.303,0.021-0.456
			c0.035-0.919,0.051-1.84,0.026-2.769c0-0.002,0-0.004,0-0.007c-0.018-0.628-0.054-1.251-0.1-1.872
			c-0.018-0.23-0.043-0.458-0.064-0.688c-0.036-0.392-0.076-0.783-0.124-1.172c-0.033-0.265-0.069-0.528-0.106-0.792
			c-0.052-0.358-0.107-0.714-0.169-1.07c-0.045-0.263-0.09-0.525-0.14-0.785c-0.073-0.381-0.154-0.76-0.239-1.138
			c-0.049-0.22-0.094-0.442-0.147-0.66c-0.142-0.596-0.297-1.188-0.467-1.774c-0.005-0.02-0.013-0.041-0.019-0.06
			c-0.171-0.588-0.358-1.172-0.555-1.75c-0.035-0.102-0.072-0.202-0.107-0.302c-0.182-0.52-0.375-1.036-0.576-1.546
			c-0.027-0.068-0.055-0.135-0.081-0.202c-4.829-12.001-15.298-21.471-28.512-24.82l-1.437-0.364v-24.85l-16.558-9.461l4.739-9.478
			l-14.693-7.346l-16.428,32.856l14.693,7.346l4.33-8.662l7.489,4.279v15.114c-16.239,3.076-29.064,15.901-32.14,32.14h-17.143
			h-16.428h-28.475v-27.39c17.701-0.141,33.993-11.816,39.151-29.67c2.32-8.03,2.061-16.201-0.273-23.635l0.745-0.411l11.986-6.613
			l-7.936-14.384l-12.711,7.013c-1.162-1.366-2.411-2.633-3.719-3.816c-0.091-0.083-0.182-0.168-0.274-0.25
			c-0.329-0.291-0.663-0.573-0.999-0.852c-0.215-0.18-0.429-0.36-0.648-0.536c-0.221-0.176-0.446-0.346-0.669-0.517
			c-0.346-0.265-0.694-0.529-1.049-0.783c-0.101-0.071-0.203-0.14-0.305-0.211c-3.624-2.551-7.716-4.561-12.206-5.858
			c-9.183-2.655-18.787-2.049-27.461,1.656l-0.003,0.001c-0.563,0.241-1.12,0.497-1.675,0.764c-0.08,0.038-0.16,0.071-0.24,0.111
			c-0.625,0.306-1.245,0.626-1.86,0.965c-0.613,0.338-1.216,0.692-1.808,1.058c-0.078,0.048-0.152,0.101-0.229,0.15
			c-0.517,0.325-1.028,0.657-1.529,1.002c-0.01,0.007-0.019,0.013-0.027,0.02c-7.747,5.361-13.371,13.156-16.023,22.331
			c-1.301,4.505-1.782,9.053-1.552,13.493c0.005,0.103,0.009,0.205,0.014,0.308c0.013,0.214,0.023,0.427,0.039,0.641
			c-14.683,0.382-28.692,8.624-35.679,22.597l-53.389,103.802v21.702c0,10.13,3.51,19.452,9.365,26.832h-42.221v-10.952h13.69
			V234.11h-13.69v-87.615h-8.817c1.148-7.64,1.201-17.545-3.932-24.666c-2.693-3.736-7.892-8.19-17.369-8.19
			c-14.179,0-25.621,5.502-32.856,15.612c-7.235-10.11-18.676-15.612-32.856-15.612c-9.477,0-14.676,4.453-17.369,8.19
			c-5.133,7.122-5.078,17.027-3.932,24.666H13.69v87.615H0v16.428h13.69H28.93l66.722,82.656L62.973,382.21v43.557h27.38h16.428
			h6.131c3.95,24.795,25.477,43.807,51.366,43.807c25.889,0,47.416-19.012,51.366-43.807h6.131h16.428H364.15h16.428h6.131
			c3.95,24.795,25.477,43.807,51.367,43.807c25.889,0,47.416-19.012,51.366-43.807H512v-8.214
			C512,377.51,479.991,344.824,440.219,343.683z M416.707,138.627c2.66,1.438,5.039,3.323,7.015,5.555
			c0.039,0.045,0.08,0.089,0.119,0.134c0.221,0.253,0.436,0.51,0.646,0.772c0.084,0.105,0.165,0.211,0.249,0.318
			c0.257,0.331,0.506,0.667,0.746,1.011c0.17,0.243,0.341,0.486,0.502,0.735c0.105,0.162,0.205,0.329,0.307,0.494
			c0.162,0.264,0.32,0.529,0.472,0.798c0.079,0.139,0.157,0.278,0.233,0.419c0.22,0.409,0.433,0.821,0.629,1.242
			c0.002,0.004,0.004,0.008,0.005,0.012c0.214,0.459,0.411,0.925,0.596,1.399c0.026,0.068,0.052,0.137,0.078,0.206
			c0.158,0.413,0.303,0.831,0.438,1.253c0.023,0.07,0.046,0.14,0.068,0.211c0.297,0.964,0.534,1.949,0.707,2.952
			c0.016,0.093,0.03,0.187,0.045,0.28c0.065,0.403,0.118,0.81,0.162,1.219c0.012,0.117,0.026,0.234,0.037,0.352
			c0.046,0.498,0.08,1,0.094,1.505c0.012,0.459,0.011,0.916-0.002,1.37c-0.001,0.05-0.005,0.101-0.007,0.151
			c-0.221,6.318-2.877,12.25-7.249,16.621c-0.428,0.427-0.867,0.839-1.322,1.23c-5.093-6.972-7.842-15.348-7.842-24.157
			C413.433,149.144,414.554,143.684,416.707,138.627z M400.152,135.952c-2.07,5.998-3.146,12.327-3.146,18.757
			c0,10.805,2.966,21.143,8.494,30.103c-0.094,0.001-0.186,0.014-0.28,0.014h-15.103c0.912-2.57,1.413-5.335,1.413-8.214
			c0-8.429-4.256-15.88-10.73-20.326C382.181,146.036,390.064,137.826,400.152,135.952z M380.578,201.253h16.428v16.428h-16.428
			V201.253z M347.722,168.398h19.166c4.53,0,8.214,3.684,8.214,8.214c0,4.53-3.684,8.214-8.214,8.214h-2.738h-16.428V168.398z
			 M326.821,79.484c0.589,3.519,0.422,7.218-0.633,10.869c-3.509,12.143-15.604,19.521-27.782,17.454
			c-2.264-3.251-5.289-5.93-8.815-7.782L326.821,79.484z M280.056,73.429c0.106-0.237,0.21-0.476,0.324-0.71
			c0.196-0.403,0.404-0.801,0.622-1.193c0.117-0.211,0.24-0.418,0.364-0.626c0.235-0.396,0.473-0.793,0.732-1.176
			c0.096-0.143,0.203-0.278,0.302-0.419c0.49-0.695,1.021-1.365,1.585-2.012c0.2-0.229,0.395-0.463,0.605-0.684
			c0.251-0.266,0.517-0.52,0.782-0.776c0.274-0.265,0.552-0.528,0.839-0.78c0.245-0.217,0.495-0.429,0.751-0.637
			c0.357-0.289,0.726-0.567,1.101-0.838c0.217-0.157,0.428-0.319,0.651-0.469c0.599-0.404,1.215-0.79,1.854-1.144
			c0.015-0.009,0.029-0.019,0.044-0.026c3.765-2.076,7.839-3.062,11.862-3.062c1.484,0,2.96,0.136,4.411,0.399
			c0.027,0.005,0.055,0.01,0.082,0.014c4.325,0.798,8.413,2.748,11.784,5.696c0.044,0.039,0.091,0.076,0.135,0.115l-40.677,22.444
			c-0.01-0.058-0.016-0.117-0.025-0.176c-0.082-0.52-0.148-1.04-0.196-1.562c-0.008-0.077-0.015-0.153-0.022-0.23
			C277.619,81.395,278.363,77.215,280.056,73.429z M269.964,121.852c0-3.487,2.188-6.466,5.26-7.655
			c3.242,2.892,6.986,5.292,11.138,7.065c0.014,0.196,0.03,0.391,0.03,0.59v46.545h44.903v16.428h-53.117
			c-4.53,0-8.214-3.684-8.214-8.214V121.852z M240.532,116.582c4.273-8.548,12.879-13.521,21.836-13.611
			c-5.394,4.524-8.831,11.308-8.831,18.882v54.759c0,13.588,11.055,24.642,24.642,24.642h53.117h16.428h16.428v24.081
			l-17.656,128.006c-5.006-5.481-11.301-9.767-18.402-12.368l24.303-91.163l0.117-0.505c2.099-10.497-0.589-21.267-7.376-29.547
			c-6.787-8.28-16.82-13.027-27.526-13.027h-61.976h-61.467L240.532,116.582z M247.742,277.917h37.069l-17.21,60.235h-2.018v34.225
			l-33.494-62.801c9.892-3.203,17.066-12.499,17.066-23.445C249.155,283.251,248.654,280.487,247.742,277.917z M282.011,354.58
			h30.118c13.76,0,25.395,9.276,28.98,21.904h-59.097V354.58z M188.92,223.157h66.714h61.976c5.765,0,11.167,2.556,14.821,7.015
			c3.605,4.397,5.063,10.098,4.017,15.678l-24.608,92.302h-27.154l21.904-76.663h-82.077h-8.761
			c-14.796,0-26.832-12.036-26.832-26.832V223.157z M125.947,277.917h89.805h8.761c4.53,0,8.214,3.684,8.214,8.214
			s-3.684,8.214-8.214,8.214h-0.548h-98.019c-4.53,0-8.214-3.684-8.214-8.214C117.733,281.601,121.417,277.917,125.947,277.917z
			 M88.117,141.953c4-7.999,11-11.887,21.402-11.887c3.052,0,3.743,0.954,4.039,1.361c1.967,2.718,1.678,9.283,0.555,15.067H86.32
			C86.768,145.031,87.352,143.483,88.117,141.953z M84.877,162.922h38.332v71.187H84.877V162.922z M39.77,131.429
			c0.296-0.407,0.986-1.361,4.039-1.361c10.222,0,17.154,3.752,21.189,11.471c0.873,1.668,1.526,3.363,2.013,4.957H39.215
			C38.091,140.706,37.804,134.146,39.77,131.429z M30.118,162.922h38.332v71.187H30.118V162.922z M50.042,250.537h73.166v11.107
			c-12.303,1.367-21.904,11.824-21.904,24.486c0,8.858,4.701,16.636,11.735,20.981l-7.838,11.758L50.042,250.537z M164.278,453.147
			c-16.799,0-30.907-11.702-34.627-27.38h69.252C195.185,441.446,181.077,453.147,164.278,453.147z M107.377,409.341
			c0.013-0.092,0.022-0.186,0.035-0.278c0.055-0.369,0.123-0.733,0.184-1.098c0.091-0.542,0.184-1.084,0.29-1.621
			c0.076-0.382,0.161-0.76,0.244-1.139c0.113-0.514,0.228-1.026,0.355-1.535c0.096-0.385,0.198-0.768,0.302-1.15
			c0.135-0.496,0.274-0.99,0.422-1.481c0.114-0.381,0.233-0.759,0.355-1.137c0.158-0.486,0.321-0.968,0.491-1.449
			c0.131-0.371,0.263-0.741,0.402-1.109c0.182-0.481,0.372-0.957,0.565-1.431c0.146-0.356,0.289-0.714,0.441-1.067
			c0.209-0.484,0.43-0.962,0.652-1.439c0.154-0.333,0.306-0.668,0.465-0.997c0.247-0.507,0.509-1.005,0.771-1.504
			c0.152-0.289,0.297-0.583,0.455-0.868c0.339-0.621,0.697-1.231,1.058-1.839c0.092-0.154,0.177-0.314,0.272-0.468
			c0.459-0.753,0.936-1.495,1.428-2.225c0.157-0.233,0.324-0.458,0.484-0.689c0.344-0.495,0.689-0.99,1.049-1.474
			c0.209-0.283,0.429-0.556,0.644-0.835c0.325-0.422,0.651-0.844,0.988-1.256c0.237-0.29,0.482-0.574,0.724-0.859
			c0.33-0.388,0.66-0.774,1-1.153c0.256-0.287,0.519-0.568,0.782-0.85c0.341-0.366,0.685-0.728,1.035-1.085
			c0.272-0.277,0.548-0.55,0.825-0.821c0.356-0.348,0.716-0.692,1.082-1.032c0.284-0.264,0.569-0.526,0.859-0.784
			c0.375-0.334,0.754-0.66,1.136-0.985c0.294-0.249,0.586-0.496,0.884-0.739c0.398-0.323,0.803-0.637,1.209-0.951
			c0.294-0.227,0.586-0.456,0.884-0.677c0.436-0.323,0.881-0.633,1.326-0.944c0.28-0.196,0.557-0.396,0.842-0.588
			c0.521-0.35,1.055-0.686,1.588-1.02c0.217-0.136,0.429-0.279,0.649-0.412c0.756-0.459,1.523-0.9,2.302-1.325
			c0.176-0.096,0.357-0.183,0.534-0.277c0.609-0.323,1.22-0.642,1.841-0.944c0.294-0.142,0.594-0.274,0.889-0.412
			c0.514-0.239,1.027-0.478,1.547-0.701c0.335-0.143,0.675-0.277,1.013-0.415c0.493-0.2,0.986-0.4,1.485-0.587
			c0.358-0.134,0.721-0.26,1.082-0.388c0.488-0.172,0.979-0.341,1.474-0.499c0.372-0.119,0.747-0.233,1.123-0.346
			c0.495-0.148,0.992-0.29,1.493-0.425c0.381-0.103,0.763-0.201,1.148-0.297c0.505-0.125,1.013-0.241,1.523-0.353
			c0.385-0.084,0.771-0.168,1.159-0.244c0.523-0.103,1.05-0.194,1.578-0.283c0.38-0.064,0.759-0.13,1.142-0.186
			c0.554-0.081,1.113-0.148,1.672-0.214c0.364-0.043,0.725-0.091,1.09-0.127c0.62-0.06,1.246-0.102,1.872-0.142
			c0.309-0.02,0.616-0.049,0.927-0.065c0.939-0.046,1.883-0.072,2.832-0.072c0.95,0,1.894,0.026,2.832,0.072
			c0.31,0.015,0.617,0.045,0.927,0.065c0.626,0.041,1.252,0.082,1.872,0.142c0.365,0.036,0.726,0.084,1.09,0.127
			c0.559,0.066,1.118,0.131,1.672,0.214c0.382,0.056,0.762,0.123,1.142,0.186c0.528,0.089,1.056,0.18,1.579,0.283
			c0.388,0.077,0.773,0.16,1.158,0.244c0.51,0.112,1.018,0.228,1.523,0.353c0.384,0.095,0.767,0.194,1.148,0.297
			c0.5,0.135,0.998,0.277,1.493,0.425c0.376,0.112,0.751,0.226,1.123,0.346c0.495,0.159,0.986,0.327,1.474,0.499
			c0.361,0.127,0.724,0.253,1.082,0.388c0.499,0.187,0.992,0.387,1.485,0.587c0.338,0.138,0.678,0.271,1.013,0.415
			c0.521,0.223,1.035,0.462,1.547,0.701c0.297,0.138,0.596,0.268,0.889,0.412c0.621,0.302,1.232,0.621,1.841,0.944
			c0.177,0.094,0.358,0.181,0.534,0.277c0.779,0.424,1.545,0.866,2.302,1.325c0.219,0.133,0.432,0.276,0.649,0.412
			c0.533,0.334,1.067,0.669,1.588,1.02c0.285,0.191,0.561,0.392,0.842,0.588c0.445,0.31,0.89,0.621,1.326,0.944
			c0.298,0.221,0.59,0.45,0.884,0.677c0.406,0.313,0.812,0.626,1.209,0.951c0.298,0.242,0.59,0.491,0.884,0.739
			c0.382,0.324,0.762,0.651,1.136,0.985c0.289,0.258,0.575,0.52,0.859,0.784c0.365,0.339,0.726,0.683,1.082,1.032
			c0.277,0.272,0.553,0.544,0.825,0.821c0.35,0.357,0.694,0.72,1.035,1.085c0.263,0.281,0.526,0.563,0.782,0.85
			c0.339,0.379,0.671,0.767,1.001,1.155c0.242,0.285,0.486,0.567,0.722,0.856c0.337,0.414,0.664,0.837,0.99,1.259
			c0.214,0.277,0.433,0.551,0.642,0.832c0.359,0.484,0.704,0.978,1.049,1.474c0.16,0.23,0.327,0.456,0.484,0.689
			c0.492,0.73,0.969,1.472,1.428,2.225c0.094,0.154,0.18,0.313,0.272,0.468c0.361,0.607,0.718,1.218,1.058,1.839
			c0.157,0.286,0.302,0.579,0.454,0.868c0.262,0.498,0.523,0.997,0.771,1.504c0.161,0.33,0.311,0.665,0.465,0.997
			c0.221,0.478,0.443,0.955,0.652,1.439c0.152,0.353,0.296,0.71,0.441,1.067c0.194,0.474,0.384,0.951,0.565,1.431
			c0.138,0.368,0.271,0.738,0.402,1.109c0.17,0.48,0.334,0.963,0.491,1.449c0.122,0.377,0.24,0.756,0.355,1.137
			c0.148,0.491,0.287,0.985,0.422,1.481c0.104,0.382,0.206,0.764,0.302,1.15c0.127,0.508,0.242,1.022,0.355,1.535
			c0.083,0.379,0.169,0.757,0.244,1.139c0.106,0.537,0.198,1.079,0.29,1.621c0.061,0.366,0.129,0.729,0.183,1.097
			c0.014,0.092,0.022,0.186,0.035,0.278H107.377z M364.774,408.107c-0.054,0.412-0.118,0.82-0.164,1.233H237.75v-0.001
			c-0.069-0.619-0.164-1.229-0.249-1.843c-0.064-0.462-0.115-0.928-0.187-1.388c-0.129-0.825-0.284-1.641-0.44-2.455
			c-0.068-0.353-0.122-0.711-0.194-1.062c-0.239-1.156-0.504-2.304-0.796-3.441c-0.074-0.289-0.163-0.571-0.241-0.859
			c-0.229-0.849-0.462-1.695-0.721-2.532c-0.135-0.437-0.288-0.865-0.431-1.298c-0.223-0.677-0.444-1.355-0.686-2.024
			c-0.171-0.472-0.359-0.936-0.539-1.404c-0.239-0.619-0.475-1.238-0.73-1.849c-0.2-0.48-0.414-0.952-0.624-1.427
			c-0.26-0.586-0.518-1.172-0.792-1.75c-0.227-0.479-0.464-0.95-0.701-1.422c-0.281-0.562-0.564-1.121-0.86-1.676
			c-0.251-0.471-0.51-0.936-0.771-1.402c-0.303-0.541-0.611-1.079-0.928-1.611c-0.274-0.461-0.553-0.917-0.837-1.371
			c-0.326-0.522-0.659-1.042-0.998-1.555c-0.295-0.447-0.594-0.891-0.897-1.332c-0.35-0.507-0.709-1.006-1.071-1.505
			c-0.314-0.43-0.629-0.861-0.951-1.284c-0.376-0.493-0.761-0.978-1.149-1.461c-0.33-0.411-0.658-0.823-0.995-1.227
			c-0.404-0.482-0.819-0.954-1.235-1.425c-0.342-0.388-0.679-0.778-1.028-1.158c-0.438-0.476-0.89-0.94-1.341-1.405
			c-0.346-0.357-0.686-0.72-1.038-1.07c-0.488-0.484-0.992-0.953-1.494-1.424c-0.333-0.312-0.658-0.633-0.997-0.939
			c-0.621-0.562-1.261-1.105-1.9-1.646c-0.233-0.197-0.459-0.404-0.695-0.599c-0.877-0.723-1.771-1.425-2.681-2.108
			c-0.304-0.229-0.62-0.442-0.929-0.666c-0.62-0.45-1.239-0.901-1.873-1.333c-0.385-0.262-0.781-0.508-1.172-0.763
			c-0.572-0.373-1.142-0.749-1.725-1.107c-0.423-0.26-0.854-0.505-1.282-0.757c-0.566-0.332-1.13-0.665-1.705-0.981
			c-0.448-0.247-0.902-0.482-1.356-0.72c-0.569-0.299-1.14-0.597-1.718-0.882c-0.468-0.23-0.941-0.449-1.414-0.669
			c-0.578-0.269-1.159-0.536-1.746-0.791c-0.482-0.209-0.969-0.411-1.457-0.61c-0.59-0.242-1.184-0.478-1.783-0.704
			c-0.494-0.187-0.991-0.369-1.491-0.545c-0.606-0.215-1.215-0.421-1.828-0.62c-0.502-0.163-1.005-0.323-1.512-0.476
			c-0.623-0.188-1.252-0.364-1.882-0.536c-0.507-0.138-1.014-0.276-1.527-0.404c-0.642-0.16-1.29-0.306-1.94-0.449
			c-0.509-0.113-1.017-0.228-1.531-0.33c-0.669-0.133-1.345-0.247-2.019-0.361c-0.502-0.085-1-0.176-1.504-0.251
			c-0.712-0.105-1.43-0.188-2.148-0.274c-0.478-0.057-0.953-0.123-1.434-0.17c-0.799-0.079-1.607-0.131-2.414-0.184
			c-0.405-0.026-0.807-0.067-1.215-0.086c-1.218-0.06-2.442-0.093-3.674-0.093c-1.232,0-2.456,0.033-3.674,0.093
			c-0.407,0.02-0.809,0.06-1.215,0.086c-0.807,0.053-1.613,0.105-2.414,0.184c-0.481,0.047-0.955,0.114-1.434,0.17
			c-0.718,0.085-1.437,0.169-2.148,0.274c-0.504,0.074-1.003,0.165-1.504,0.251c-0.676,0.115-1.35,0.229-2.02,0.361
			c-0.514,0.102-1.022,0.217-1.531,0.33c-0.649,0.143-1.297,0.288-1.94,0.449c-0.511,0.128-1.018,0.265-1.527,0.404
			c-0.63,0.172-1.258,0.347-1.882,0.536c-0.507,0.152-1.01,0.313-1.512,0.476c-0.613,0.199-1.222,0.405-1.828,0.62
			c-0.499,0.177-0.997,0.359-1.492,0.547c-0.598,0.227-1.19,0.462-1.781,0.703c-0.488,0.199-0.975,0.401-1.458,0.611
			c-0.587,0.255-1.166,0.52-1.746,0.791c-0.473,0.22-0.946,0.439-1.414,0.669c-0.578,0.285-1.149,0.583-1.718,0.882
			c-0.453,0.238-0.908,0.472-1.356,0.72c-0.575,0.318-1.14,0.649-1.705,0.981c-0.428,0.252-0.86,0.497-1.282,0.757
			c-0.583,0.358-1.153,0.734-1.725,1.107c-0.39,0.255-0.786,0.502-1.172,0.763c-0.634,0.432-1.254,0.883-1.873,1.333
			c-0.308,0.223-0.624,0.438-0.929,0.666c-0.91,0.682-1.804,1.385-2.681,2.108c-0.237,0.195-0.461,0.402-0.695,0.599
			c-0.64,0.541-1.279,1.084-1.9,1.646c-0.338,0.307-0.664,0.626-0.997,0.939c-0.502,0.471-1.005,0.94-1.494,1.424
			c-0.353,0.35-0.693,0.713-1.038,1.07c-0.45,0.465-0.901,0.929-1.341,1.405c-0.349,0.38-0.687,0.77-1.028,1.158
			c-0.415,0.472-0.831,0.943-1.235,1.425c-0.338,0.404-0.666,0.816-0.996,1.227c-0.388,0.483-0.773,0.968-1.149,1.461
			c-0.323,0.424-0.637,0.853-0.951,1.284c-0.363,0.497-0.721,0.998-1.071,1.505c-0.304,0.44-0.602,0.885-0.897,1.332
			c-0.339,0.514-0.671,1.032-0.998,1.555c-0.284,0.454-0.563,0.91-0.837,1.371c-0.317,0.532-0.624,1.07-0.928,1.611
			c-0.262,0.465-0.521,0.932-0.772,1.404c-0.295,0.552-0.577,1.112-0.858,1.672c-0.237,0.473-0.474,0.945-0.702,1.424
			c-0.274,0.578-0.533,1.163-0.792,1.749c-0.21,0.474-0.424,0.947-0.624,1.427c-0.254,0.61-0.492,1.23-0.731,1.849
			c-0.181,0.468-0.368,0.932-0.539,1.404c-0.242,0.668-0.462,1.346-0.686,2.024c-0.142,0.434-0.296,0.862-0.431,1.298
			c-0.258,0.837-0.491,1.683-0.721,2.532c-0.078,0.287-0.168,0.57-0.241,0.859c-0.292,1.137-0.557,2.283-0.796,3.441
			c-0.072,0.352-0.127,0.709-0.194,1.062c-0.156,0.816-0.311,1.631-0.44,2.455c-0.071,0.46-0.124,0.925-0.187,1.388
			c-0.084,0.614-0.18,1.224-0.249,1.843H79.401v-22.155l50.942-76.412h83.766l43.807,82.139h7.666h92.035h1.056v-7.653
			l20.848-151.149h29.461l14.842,110.911C392.89,351.088,368.825,376.505,364.774,408.107z M438.075,453.147
			c-16.799,0-30.907-11.702-34.627-27.38H472.7C468.982,441.446,454.874,453.147,438.075,453.147z M381.172,409.338
			c3.808-26.16,25.5-47.053,52.5-49.096l0.907-0.069c1.158-0.07,2.322-0.118,3.497-0.118c28.915,0,52.914,21.456,56.912,49.283
			H381.172z"/>
	</g>
</g>
<g>
	<g>
		<rect x="114.995" y="42.451" width="16.428" height="16.428"/>
	</g>
</g>
<g>
	<g>
		<rect x="147.85" y="42.451" width="16.428" height="16.428"/>
	</g>
</g>
<g>
	<g>
		<rect x="82.139" y="42.451" width="16.428" height="16.428"/>
	</g>
</g>
<g>
	<g>
		<rect x="180.706" y="42.451" width="16.428" height="16.428"/>
	</g>
</g>
<g>
	<g>
		<rect x="213.562" y="42.451" width="16.428" height="16.428"/>
	</g>
</g>
<g>
	<g>
		<rect x="147.85" y="75.307" width="16.428" height="16.428"/>
	</g>
</g>
<g>
	<g>
		<rect x="114.995" y="75.307" width="16.428" height="16.428"/>
	</g>
</g>
<g>
	<g>
		<rect x="82.139" y="75.307" width="16.428" height="16.428"/>
	</g>
</g>
<g>
	<g>
		<rect x="16.428" y="75.307" width="16.428" height="16.428"/>
	</g>
</g>
<g>
	<g>
		<rect x="49.283" y="75.307" width="16.428" height="16.428"/>
	</g>
</g>
<g>
	<g>
		<rect x="8.571" y="349.102" width="15.714" height="16.428"/>
	</g>
</g>
<g>
	<g>
		<rect x="40.708" y="349.102" width="16.428" height="16.428"/>
	</g>
</g>
<g>
	<g>
		<rect x="32.142" y="381.957" width="16.428" height="16.428"/>
	</g>
</g>
<g>
	<g>
		<rect y="381.957" width="15.714" height="16.428"/>
	</g>
</g>
<g>
</g>
<g>
</g>
<g>
</g>
<g>
</g>
<g>
</g>
<g>
</g>
<g>
</g>
<g>
</g>
<g>
</g>
<g>
</g>
<g>
</g>
<g>
</g>
<g>
</g>
<g>
</g>
<g>
</g>
</svg>
